<svg width="32" height="32" fill="none" xmlns="http://www.w3.org/2000/svg"><path d="M14.9 30h2.13c.24 0 .42-.23.36-.45L15.5 21.6h-3l1.91 8.02c.06.22.26.38.49.38Zm5.88 0h-2.13c-.24 0-.42-.23-.36-.45l1.89-7.95h3l-1.91 8.02a.51.51 0 0 1-.49.38Z" fill="#D3883E"/><path d="M21.41 3.18a7.03 7.03 0 0 1 7.98 9.67 7 7 0 0 1-1.78 2.42c.25.7.39 1.45.39 2.23v4.54a4.5 4.5 0 0 1-.39 1.84l-2.52 5.89a.36.36 0 0 1-.34.23h-2.18a.36.36 0 0 1-.33-.52l1.3-3.03a.7.7 0 0 0-.15-.79l-2.41-2.41c-.16-.16-4.3-2.54-4.53-2.54L13.01 23v6.62c0 .21-.17.38-.38.38h-2.25a.38.38 0 0 1-.38-.37v-6.65L8.03 19l-2.01-2A4.02 4.02 0 0 1 2 12.98v-.22c0-.42.34-.76.76-.76.25 0 .47-.18.52-.43C3.66 9.62 5.13 7.73 7 7.3V4.59c0-.38.47-.55.72-.27l3.31 3.69-.26.98 1.77 1c.15.32.26.66.34 1.01l-.64 1L13 13v.41c0 .45.47.75.88.55l.12-.06 1.06.4.92-1.36 1.03-.5.97.31.98-1.25a6.3 6.3 0 0 1 1.02-.33l.96 1.18 1-1.34a6.49 6.49 0 0 1 4.64 2.44 5 5 0 0 0-4.71-8.33 1 1 0 0 1-1.06-.44l-.01-.01a.98.98 0 0 1 .6-1.5Z" fill="#F3AD61"/><path d="M11.76 8.83 11.02 8H10a1 1 0 0 0-1 1 1 1 0 0 0 1 1h2.55a4.9 4.9 0 0 0-.79-1.17Zm8.21 2.35c.5-.12 1.01-.18 1.53-.18l.47.02v3.36a1 1 0 0 1-1 1 1 1 0 0 1-1-1v-3.2Zm-1.32.47-1.67.81v2.75a1 1 0 0 0 1 1 1 1 0 0 0 1-1v-3.7l-.33.14ZM15 17.04a1 1 0 0 0 1-1v-3.1l-2 .97v2.13a1 1 0 0 0 1 1ZM12.88 11c.08.35.12.71.12 1.09V13h-1.5a1 1 0 0 1-1-1 1 1 0 0 1 1-1h1.38Z" fill="#D3883E"/><path d="M8.73 17.9a1.59 1.59 0 0 0-1.44-.9H6.02v1.59A4.41 4.41 0 0 0 10 22.98v-2.89L8.73 17.9Zm7.91 2.25H13V23h7.36c.23 0 .45.09.61.25l-1.5-1.78a3.68 3.68 0 0 0-2.83-1.32Z" fill="#FFDEA7"/><path d="M6.02 11.59c0-.32.22-.57.49-.57.28 0 .49.26.49.57v.84c0 .31-.21.56-.49.57-.28 0-.49-.26-.49-.57v-.84ZM3.44 12c.24 0 .37.27.23.46l-1.42 1.91c-.16-.43-.25-.9-.25-1.39v-.22c0-.42.34-.76.76-.76h.68Z" fill="#212121"/></svg>